<svg width="160" height="24" viewBox="0 0 160 24" fill="none" xmlns="http://www.w3.org/2000/svg">
<path d="M60.5085 6.91217C61.7546 6.91217 62.7239 5.93639 62.7239 4.68179C62.5854 3.42731 61.4776 2.59088 60.3699 2.59088C59.1238 2.59088 58.1546 3.56669 58.1546 4.82125C58.1546 5.93639 59.2623 6.91217 60.5085 6.91217ZM7.75389 6.91217C6.50779 7.05153 5.40004 7.46969 4.43084 8.16664L3.87695 2.73034L0 3.1485L2.49232 21.9667L6.23086 21.5484L5.9539 20.1545C7.0616 20.5728 8.30781 20.7121 9.55392 20.5728C13.5694 20.0152 16.4771 16.5303 15.9233 12.7667C15.5079 9.00308 11.7694 6.35455 7.75389 6.91217ZM9.13855 16.8091C7.33856 17.0879 5.53853 15.8333 5.26157 14.0212C5.12314 12.3485 6.50779 10.6757 8.30781 10.397C10.1078 10.2576 11.9078 11.5122 12.1848 13.1849C12.4617 14.8576 10.9385 16.5303 9.13855 16.8091ZM28.2465 9.42121C27.2773 8.86362 26.0311 8.44547 24.7849 8.44547C20.7695 8.3061 17.3079 11.2333 17.031 14.997C16.8926 18.7607 19.9387 22.1061 23.9541 22.2455C25.2003 22.2455 26.308 22.1061 27.4157 21.5485L27.2773 22.9425L31.1542 23.0819L32.2619 8.16667L28.385 8.02731L28.2465 9.42121ZM24.2311 18.6212C22.2926 18.4818 20.7695 16.9485 20.9079 15.1364C20.9079 13.3242 22.7079 11.9303 24.508 12.0697C26.4464 12.2091 27.9696 13.8819 27.8311 15.5545C27.8311 17.2273 26.1695 18.7607 24.2311 18.6212ZM40.5697 7.74851C40.8467 7.74851 40.8467 7.60915 41.1236 7.60915L40.0158 5.09995C39.739 5.09995 39.739 5.23941 39.4621 5.23941C35.4466 6.2151 33.0927 9.14244 34.3389 11.6515L36.8312 17.0879C37.3851 18.3424 36.2774 19.7363 34.3389 20.1545C34.0619 20.1545 34.0619 20.2939 33.785 20.2939L34.8928 22.803C35.1697 22.6636 35.1697 22.6637 35.4466 22.6637C39.4621 21.6879 41.8159 18.7606 40.5697 16.2515L38.0774 10.8152C37.5235 9.69997 38.6312 8.16667 40.5697 7.74851ZM55.9391 7.74851L53.1698 5.23944L46.3852 12.2091L47.216 0.778792L43.339 0.5L42.0928 21.1303L49.5698 14.3L53.5853 19.4576L56.6314 17.3667L52.3391 11.5121L55.9391 7.74851ZM58.57 8.16667L58.9854 20.8515L62.8624 20.7121L62.4469 8.02728L58.57 8.16667ZM75.1855 8.16667L75.0471 14.997L65.9085 5.51823L65.2162 20.7121H69.0932L69.2317 13.8819L78.2318 23.5L79.0625 8.16664L75.1855 8.16667Z" fill="white"/>
<path d="M135.595 1.95223C134.39 1.8172 133.453 2.62708 133.453 3.70682C133.319 4.78653 134.256 5.73133 135.327 5.73133C136.398 5.86627 137.469 5.05649 137.469 3.97676C137.469 2.89702 136.666 1.95223 135.595 1.95223ZM91.8105 9.24048H92.2122L91.9444 5.32644H91.5427C90.2037 5.46138 88.9987 5.86626 87.9275 6.54112L87.7936 4.92156L83.375 5.32644L84.714 20.8478L88.8648 20.5779L88.3292 13.0197C88.1953 11.1301 89.8021 9.3755 91.8105 9.24048ZM97.702 8.16074C94.0868 8.29576 91.275 10.9951 91.4088 14.2343C91.4088 17.6085 94.3546 20.173 97.8359 20.173C101.317 20.173 104.129 17.4736 104.129 14.0994C104.129 10.7252 101.183 8.16074 97.702 8.16074ZM97.702 17.0687C96.0952 17.0687 94.7563 15.719 94.6224 14.2344C94.6224 12.7497 95.9614 11.4 97.5681 11.4C99.1748 11.4 100.648 12.7497 100.648 14.2343C100.648 15.719 99.3088 17.0687 97.702 17.0687ZM111.895 9.24048C110.69 9.24048 109.753 9.51045 108.815 9.91534L108.949 4.78653L105.602 4.65158L105.2 21.2527L108.548 21.3877V20.3079C109.351 20.8478 110.422 21.1178 111.493 21.1178C114.975 21.2527 117.92 18.5534 118.054 15.3141C118.188 12.0749 115.376 9.37547 111.895 9.24048ZM111.627 18.1485C110.021 18.1485 108.682 16.7988 108.682 15.3141C108.682 13.6945 110.154 12.4798 111.761 12.4798C113.368 12.4798 114.841 13.8295 114.707 15.4491C114.707 16.9337 113.234 18.1485 111.627 18.1485ZM125.285 6.40618C124.214 6.40618 123.142 6.67612 122.339 7.21595L122.205 2.2222L118.858 2.35713L119.527 18.9582L122.607 18.8233V17.7436C123.544 18.2834 124.615 18.4184 125.686 18.4184C129.168 18.2834 131.98 15.4491 131.846 12.2098C131.712 8.8356 128.766 6.27121 125.285 6.40618ZM125.686 15.1791C124.08 15.3141 122.607 13.9644 122.607 12.4797C122.607 10.9951 123.946 9.51045 125.553 9.51045C127.159 9.37551 128.498 10.7252 128.632 12.2098C128.632 13.8295 127.293 15.1791 125.686 15.1791ZM132.917 17.6086L136.264 17.7435L136.934 6.67614L133.586 6.54112L132.917 17.6086ZM147.779 12.3448L139.478 2.76199L139.344 17.3386H142.691V11.4L150.725 20.173L151.127 6.40618H147.779V12.3448ZM156.751 10.3203C156.215 9.10554 157.286 7.75585 159.027 7.48591C159.295 7.48591 159.295 7.48591 159.562 7.35097L158.491 4.78653C158.224 4.78653 158.224 4.78653 157.956 4.92156C154.207 5.59638 151.93 8.43071 153.001 10.9951L155.278 16.5288C155.813 17.7436 154.742 19.0933 153.001 19.3631C152.734 19.3631 152.734 19.3631 152.466 19.4981L153.537 22.0625C153.805 22.0625 153.805 22.0625 154.073 21.9276C157.956 21.2527 160.098 18.4184 159.027 15.854L156.751 10.3203Z" fill="white"/>
</svg>
