<svg width="160" height="24" viewBox="0 0 160 24" fill="none" xmlns="http://www.w3.org/2000/svg">
<path d="M60.6506 6.91217C61.8967 6.91217 62.8659 5.93639 62.8659 4.68179C62.7275 3.42731 61.6197 2.59088 60.512 2.59088C59.2659 2.59088 58.2967 3.56669 58.2967 4.82125C58.2967 5.93639 59.4044 6.91217 60.6506 6.91217ZM7.89598 6.91217C6.64988 7.05153 5.54213 7.46969 4.57293 8.16664L4.01904 2.73034L0.14209 3.1485L2.63441 21.9667L6.37295 21.5484L6.09599 20.1545C7.20369 20.5728 8.4499 20.7121 9.69601 20.5728C13.7115 20.0152 16.6192 16.5303 16.0654 12.7667C15.65 9.00308 11.9115 6.35455 7.89598 6.91217ZM9.28064 16.8091C7.48065 17.0879 5.68062 15.8333 5.40366 14.0212C5.26523 12.3485 6.64988 10.6757 8.4499 10.397C10.2499 10.2576 12.0499 11.5122 12.3268 13.1849C12.6038 14.8576 11.0806 16.5303 9.28064 16.8091ZM28.3886 9.42121C27.4194 8.86362 26.1732 8.44547 24.927 8.44547C20.9116 8.3061 17.45 11.2333 17.1731 14.997C17.0346 18.7607 20.0807 22.1061 24.0962 22.2455C25.3424 22.2455 26.4501 22.1061 27.5578 21.5485L27.4194 22.9425L31.2963 23.0819L32.404 8.16667L28.5271 8.02731L28.3886 9.42121ZM24.3732 18.6212C22.4347 18.4818 20.9116 16.9485 21.05 15.1364C21.05 13.3242 22.85 11.9303 24.6501 12.0697C26.5885 12.2091 28.1117 13.8819 27.9732 15.5545C27.9732 17.2273 26.3116 18.7607 24.3732 18.6212ZM40.7118 7.74851C40.9888 7.74851 40.9888 7.60915 41.2657 7.60915L40.1579 5.09995C39.8811 5.09995 39.8811 5.23941 39.6041 5.23941C35.5886 6.2151 33.2348 9.14244 34.481 11.6515L36.9733 17.0879C37.5272 18.3424 36.4195 19.7363 34.481 20.1545C34.204 20.1545 34.204 20.2939 33.9271 20.2939L35.0349 22.803C35.3117 22.6636 35.3117 22.6637 35.5886 22.6637C39.6041 21.6879 41.958 18.7606 40.7118 16.2515L38.2195 10.8152C37.6656 9.69997 38.7733 8.16667 40.7118 7.74851ZM56.0812 7.74851L53.3119 5.23944L46.5273 12.2091L47.358 0.778792L43.4811 0.5L42.2348 21.1303L49.7119 14.3L53.7274 19.4576L56.7735 17.3667L52.4812 11.5121L56.0812 7.74851ZM58.712 8.16667L59.1274 20.8515L63.0045 20.7121L62.589 8.02728L58.712 8.16667ZM75.3276 8.16667L75.1892 14.997L66.0506 5.51823L65.3583 20.7121H69.2353L69.3737 13.8819L78.3739 23.5L79.2046 8.16664L75.3276 8.16667Z" fill="#F986BD"/>
<path d="M135.737 1.95223C134.532 1.8172 133.595 2.62708 133.595 3.70682C133.461 4.78653 134.398 5.73133 135.469 5.73133C136.54 5.86627 137.612 5.05649 137.612 3.97676C137.612 2.89702 136.808 1.95223 135.737 1.95223ZM91.9526 9.24048H92.3543L92.0865 5.32644H91.6848C90.3458 5.46138 89.1408 5.86626 88.0696 6.54112L87.9357 4.92156L83.5171 5.32644L84.8561 20.8478L89.0068 20.5779L88.4713 13.0197C88.3374 11.1301 89.9441 9.3755 91.9526 9.24048ZM97.8441 8.16074C94.2289 8.29576 91.4171 10.9951 91.5509 14.2343C91.5509 17.6085 94.4967 20.173 97.978 20.173C101.459 20.173 104.271 17.4736 104.271 14.0994C104.271 10.7252 101.325 8.16074 97.8441 8.16074ZM97.8441 17.0687C96.2373 17.0687 94.8984 15.719 94.7645 14.2344C94.7645 12.7497 96.1035 11.4 97.7102 11.4C99.3169 11.4 100.79 12.7497 100.79 14.2343C100.79 15.719 99.4509 17.0687 97.8441 17.0687ZM112.037 9.24048C110.832 9.24048 109.895 9.51045 108.958 9.91534L109.091 4.78653L105.744 4.65158L105.342 21.2527L108.69 21.3877V20.3079C109.493 20.8478 110.564 21.1178 111.635 21.1178C115.117 21.2527 118.063 18.5534 118.196 15.3141C118.33 12.0749 115.519 9.37547 112.037 9.24048ZM111.769 18.1485C110.163 18.1485 108.824 16.7988 108.824 15.3141C108.824 13.6945 110.297 12.4798 111.903 12.4798C113.51 12.4798 114.983 13.8295 114.849 15.4491C114.849 16.9337 113.376 18.1485 111.769 18.1485ZM125.427 6.40618C124.356 6.40618 123.285 6.67612 122.481 7.21595L122.347 2.2222L119 2.35713L119.669 18.9582L122.749 18.8233V17.7436C123.686 18.2834 124.757 18.4184 125.829 18.4184C129.31 18.2834 132.122 15.4491 131.988 12.2098C131.854 8.8356 128.908 6.27121 125.427 6.40618ZM125.829 15.1791C124.222 15.3141 122.749 13.9644 122.749 12.4797C122.749 10.9951 124.088 9.51045 125.695 9.51045C127.301 9.37551 128.64 10.7252 128.774 12.2098C128.774 13.8295 127.435 15.1791 125.829 15.1791ZM133.059 17.6086L136.406 17.7435L137.076 6.67614L133.728 6.54112L133.059 17.6086ZM147.922 12.3448L139.62 2.76199L139.486 17.3386H142.833V11.4L150.867 20.173L151.269 6.40618H147.922V12.3448ZM156.893 10.3203C156.357 9.10554 157.428 7.75585 159.169 7.48591C159.437 7.48591 159.437 7.48591 159.705 7.35097L158.633 4.78653C158.366 4.78653 158.366 4.78653 158.098 4.92156C154.349 5.59638 152.072 8.43071 153.144 10.9951L155.42 16.5288C155.955 17.7436 154.884 19.0933 153.144 19.3631C152.876 19.3631 152.876 19.3631 152.608 19.4981L153.679 22.0625C153.947 22.0625 153.947 22.0625 154.215 21.9276C158.098 21.2527 160.24 18.4184 159.169 15.854L156.893 10.3203Z" fill="#F986BD"/>
</svg>
