<svg width="107" height="34" viewBox="0 0 107 34" fill="none" xmlns="http://www.w3.org/2000/svg">
<path d="M94.0928 6.79195C94.9597 6.79195 95.634 6.11315 95.634 5.24039C95.5377 4.36771 94.7671 3.78584 93.9965 3.78584C93.1296 3.78584 92.4554 4.46466 92.4554 5.3374C92.4554 6.11315 93.2259 6.79195 94.0928 6.79195ZM57.394 6.79195C56.5272 6.8889 55.7565 7.17979 55.0823 7.66463L54.697 3.88285L52 4.17375L53.7338 17.2647L56.3345 16.9737L56.1418 16.004C56.9124 16.295 57.7793 16.3919 58.6462 16.295C61.4396 15.9071 63.4623 13.4828 63.0771 10.8646C62.7881 8.2465 60.1874 6.40405 57.394 6.79195ZM58.3573 13.6768C57.1051 13.8707 55.8529 12.998 55.6602 11.7374C55.5639 10.5737 56.5272 9.41008 57.7793 9.21619C59.0315 9.11918 60.2837 9.99194 60.4764 11.1556C60.669 12.3192 59.6094 13.4828 58.3573 13.6768ZM71.6497 8.53737C70.9755 8.14949 70.1086 7.8586 69.2417 7.8586C66.4484 7.76164 64.0403 9.79798 63.8476 12.4162C63.7513 15.0344 65.8704 17.3616 68.6637 17.4586C69.5307 17.4586 70.3012 17.3616 71.0718 16.9738L70.9755 17.9435L73.6725 18.0404L74.4431 7.66465L71.7461 7.5677L71.6497 8.53737ZM68.8564 14.9374C67.5079 14.8404 66.4484 13.7737 66.5446 12.5131C66.5446 11.2525 67.7968 10.2829 69.0491 10.3798C70.3975 10.4768 71.4571 11.6404 71.3607 12.804C71.3607 13.9677 70.2049 15.0344 68.8564 14.9374ZM80.2224 7.37375C80.4151 7.37375 80.4151 7.27681 80.6077 7.27681L79.8371 5.53128C79.6445 5.53128 79.6445 5.6283 79.4519 5.6283C76.6585 6.30704 75.021 8.34345 75.8879 10.0889L77.6217 13.8707C78.007 14.7434 77.2365 15.7131 75.8879 16.004C75.6953 16.004 75.6953 16.101 75.5026 16.101L76.2732 17.8465C76.4659 17.7495 76.4658 17.7495 76.6585 17.7495C79.4519 17.0707 81.0894 15.0343 80.2224 13.2889L78.4886 9.50711C78.1033 8.7313 78.8739 7.66465 80.2224 7.37375ZM90.9142 7.37375L88.9877 5.62832L84.268 10.4768L84.8459 2.52526L82.1489 2.33131L81.2819 16.6828L86.4834 11.9313L89.2767 15.5192L91.3958 14.0647L88.4098 9.99192L90.9142 7.37375ZM92.7443 7.66465L93.0333 16.4889L95.7304 16.3919L95.4413 7.56768L92.7443 7.66465ZM104.303 7.66465L104.207 12.4162L97.8494 5.82226L97.3678 16.3919H100.065L100.161 11.6404L106.422 18.3313L107 7.66463L104.303 7.66465Z" fill="white"/>
<path d="M90.3269 18.3416C89.4885 18.2476 88.8366 18.811 88.8366 19.5621C88.7434 20.3132 89.3954 20.9705 90.1406 20.9705C90.8857 21.0644 91.6309 20.501 91.6309 19.7499C91.6309 18.9988 91.072 18.3416 90.3269 18.3416ZM59.8682 23.4116H60.1476L59.9614 20.6888H59.6819C58.7504 20.7827 57.9121 21.0644 57.167 21.5338L57.0738 20.4072L54 20.6888L54.9315 31.4863L57.819 31.2985L57.4464 26.0407C57.3532 24.7261 58.471 23.5056 59.8682 23.4116ZM63.9666 22.6605C61.4517 22.7545 59.4956 24.6323 59.5887 26.8856C59.5887 29.2329 61.638 31.0169 64.0597 31.0169C66.4816 31.0169 68.4376 29.139 68.4376 26.7918C68.4376 24.4445 66.3884 22.6605 63.9666 22.6605ZM63.9666 28.8574C62.8489 28.8574 61.9174 27.9185 61.8243 26.8857C61.8243 25.8529 62.7557 24.9139 63.8734 24.9139C64.9912 24.9139 66.0158 25.8529 66.0158 26.8856C66.0158 27.9185 65.0844 28.8574 63.9666 28.8574ZM73.84 23.4116C73.0018 23.4116 72.3497 23.5995 71.6977 23.8811L71.7908 20.3132L69.4622 20.2194L69.1828 31.768L71.5114 31.8619V31.1108C72.0703 31.4863 72.8155 31.6741 73.5606 31.6741C75.9824 31.768 78.0316 29.8902 78.1248 27.6368C78.2179 25.3834 76.2619 23.5056 73.84 23.4116ZM73.6537 29.6085C72.536 29.6085 71.6046 28.6696 71.6046 27.6368C71.6046 26.5101 72.6292 25.6651 73.7469 25.6651C74.8647 25.6651 75.8893 26.604 75.7961 27.7307C75.7961 28.7635 74.7715 29.6085 73.6537 29.6085ZM83.1546 21.44C82.4095 21.44 81.6643 21.6277 81.1054 22.0033L81.0123 18.5294L78.6836 18.6232L79.1494 30.1718L81.2917 30.078V29.3268C81.9437 29.7024 82.6889 29.7963 83.4341 29.7963C85.8559 29.7024 87.8119 27.7307 87.7188 25.4773C87.6256 23.13 85.5765 21.3461 83.1546 21.44ZM83.4341 27.5429C82.3164 27.6368 81.2917 26.6978 81.2917 25.665C81.2917 24.6323 82.2232 23.5995 83.3409 23.5995C84.4587 23.5056 85.3902 24.4445 85.4833 25.4773C85.4833 26.604 84.5518 27.5429 83.4341 27.5429ZM88.464 29.2329L90.7926 29.3268L91.2583 21.6278L88.9297 21.5338L88.464 29.2329ZM98.8031 25.5712L93.0281 18.9049L92.9349 29.0451H95.2636V24.9139L100.852 31.0169L101.132 21.44H98.8031V25.5712ZM105.044 24.1628C104.671 23.3178 105.417 22.3789 106.627 22.1911C106.814 22.1911 106.814 22.1911 107 22.0972L106.255 20.3132C106.069 20.3132 106.069 20.3132 105.882 20.4072C103.274 20.8766 101.691 22.8483 102.436 24.6323L104.019 28.4818C104.392 29.3268 103.647 30.2658 102.436 30.4535C102.25 30.4535 102.25 30.4535 102.063 30.5474L102.808 32.3313C102.995 32.3313 102.995 32.3313 103.181 32.2374C105.882 31.768 107.373 29.7963 106.627 28.0123L105.044 24.1628Z" fill="white"/>
<path d="M0 2.42459L8.39744 1.26167L9.86122 33.5911L5.70101 33.281L0 2.42459Z" fill="white"/>
<path d="M49.9995 11.0303C49.9995 5.44821 46.8408 2.03696 38.7516 0.874023L37.673 8.62689C39.2138 9.01454 42.2184 10.255 42.2184 13.3561C42.2184 16.8449 38.6745 18.473 36.2092 19.1708L35.6699 23.5899L42.0643 33.6687L45.6852 32.9709L41.2939 21.9618C45.223 20.7214 49.9995 16.6899 49.9995 11.0303Z" fill="white"/>
<path d="M36.6715 0.563904L28.4281 0.331314L28.8904 33.2035L33.0506 33.6687L36.6715 0.563904ZM19.4914 17.5427C19.4914 17.5427 24.7302 15.3719 24.7302 10.255C24.7302 4.05271 19.4914 1.02908 13.02 1.02908C12.2496 1.02908 11.4021 1.02908 10.5547 1.1066L10.7088 8.31679C14.4067 8.00667 17.6424 9.24712 17.6424 12.7359C17.6424 15.8371 14.4838 17.0775 11.7103 17.1551L12.0955 21.0315C16.0246 20.954 18.644 22.8922 18.7981 25.5282C18.9521 28.6293 16.4098 30.6451 11.171 30.2574L11.248 33.6687H13.1741C20.7241 33.6687 25.9628 29.3271 25.9628 24.1326C25.8858 20.5663 23.4975 18.318 19.4914 17.5427Z" fill="white"/>
</svg>
