<svg width="37" height="38" viewBox="0 0 37 38" fill="none" xmlns="http://www.w3.org/2000/svg">
<path d="M18.5015 14.3752C17.2748 14.3752 16.0984 14.8624 15.2311 15.7298C14.3637 16.5971 13.8765 17.7735 13.8765 19.0002C13.8765 20.2268 14.3637 21.4032 15.2311 22.2705C16.0984 23.1379 17.2748 23.6252 18.5015 23.6252C19.7281 23.6252 20.9045 23.1379 21.7718 22.2705C22.6392 21.4032 23.1265 20.2268 23.1265 19.0002C23.1265 17.7735 22.6392 16.5971 21.7718 15.7298C20.9045 14.8624 19.7281 14.3752 18.5015 14.3752ZM18.5015 11.2918C20.5458 11.2918 22.5065 12.104 23.9521 13.5495C25.3977 14.9951 26.2098 16.9558 26.2098 19.0002C26.2098 21.0445 25.3977 23.0052 23.9521 24.4508C22.5065 25.8964 20.5458 26.7085 18.5015 26.7085C16.4571 26.7085 14.4964 25.8964 13.0508 24.4508C11.6053 23.0052 10.7931 21.0445 10.7931 19.0002C10.7931 16.9558 11.6053 14.9951 13.0508 13.5495C14.4964 12.104 16.4571 11.2918 18.5015 11.2918ZM28.5223 10.9064C28.5223 11.4175 28.3193 11.9077 27.9579 12.2691C27.5965 12.6305 27.1063 12.8335 26.5952 12.8335C26.0841 12.8335 25.594 12.6305 25.2326 12.2691C24.8712 11.9077 24.6681 11.4175 24.6681 10.9064C24.6681 10.3953 24.8712 9.90516 25.2326 9.54376C25.594 9.18236 26.0841 8.97933 26.5952 8.97933C27.1063 8.97933 27.5965 9.18236 27.9579 9.54376C28.3193 9.90516 28.5223 10.3953 28.5223 10.9064ZM18.5015 6.66683C14.6874 6.66683 14.0645 6.67762 12.2901 6.75625C11.0814 6.81329 10.2705 6.97516 9.51817 7.26808C8.88891 7.4999 8.31986 7.87031 7.85317 8.35187C7.37105 8.81841 7.00011 9.38747 6.76784 10.0169C6.47492 10.7723 6.31304 11.5817 6.25754 12.7888C6.17738 14.4908 6.16659 15.0859 6.16659 19.0002C6.16659 22.8158 6.17738 23.4371 6.256 25.2115C6.31304 26.4187 6.47492 27.2311 6.76629 27.9819C7.02838 28.6525 7.33671 29.1351 7.84854 29.6469C8.36809 30.1649 8.85063 30.4748 9.51354 30.7307C10.2751 31.0252 11.086 31.1886 12.2885 31.2441C13.9905 31.3242 14.5856 31.3335 18.4999 31.3335C22.3155 31.3335 22.9368 31.3227 24.7113 31.2441C25.9169 31.187 26.7278 31.0252 27.4817 30.7338C28.1109 30.502 28.68 30.1316 29.1467 29.65C29.6662 29.132 29.9761 28.6495 30.232 27.985C30.5249 27.2265 30.6883 26.4156 30.7438 25.21C30.824 23.5095 30.8333 22.9129 30.8333 19.0002C30.8333 15.1861 30.8225 14.5632 30.7438 12.7888C30.6868 11.5832 30.5234 10.7692 30.232 10.0169C30.0002 9.38761 29.6298 8.81857 29.1482 8.35187C28.6817 7.86975 28.1126 7.49881 27.4832 7.26654C26.7278 6.97362 25.9169 6.81175 24.7113 6.75625C23.0108 6.67608 22.4158 6.66683 18.4999 6.66683M18.4999 3.5835C22.6886 3.5835 23.2113 3.59891 24.8562 3.676C26.4965 3.75308 27.6158 4.01054 28.5978 4.39287C29.6153 4.78445 30.4725 5.31479 31.3297 6.17041C32.1139 6.94083 32.7205 7.87314 33.1072 8.90225C33.488 9.88429 33.747 11.0035 33.8241 12.6454C33.8965 14.2888 33.9166 14.8115 33.9166 19.0002C33.9166 23.1889 33.9012 23.7115 33.8241 25.3549C33.747 26.9983 33.488 28.1145 33.1072 29.0981C32.7205 30.1272 32.1139 31.0595 31.3297 31.8299C30.5592 32.6142 29.6269 33.2208 28.5978 33.6075C27.6158 33.9882 26.4965 34.2472 24.8562 34.3243C23.2113 34.3968 22.6886 34.4168 18.4999 34.4168C14.3112 34.4168 13.7886 34.4014 12.1436 34.3243C10.5033 34.2472 9.38559 33.9882 8.402 33.6075C7.3729 33.2208 6.44059 32.6142 5.67017 31.8299C4.88593 31.0595 4.2793 30.1272 3.89263 29.0981C3.51029 28.116 3.25284 26.9968 3.17575 25.3549C3.10175 23.7115 3.08325 23.1889 3.08325 19.0002C3.08325 14.8115 3.09867 14.2888 3.17575 12.6454C3.25284 11.002 3.51029 9.88583 3.89263 8.90225C4.2793 7.87314 4.88593 6.94083 5.67017 6.17041C6.44059 5.38618 7.3729 4.77955 8.402 4.39287C9.38404 4.01054 10.5018 3.75308 12.1436 3.676C13.7901 3.60354 14.3128 3.5835 18.5015 3.5835" fill="white"/>
</svg>
