<svg width="41" height="14" viewBox="0 0 41 14" fill="none" xmlns="http://www.w3.org/2000/svg">
<path d="M-0.00799996 6.792C-0.00799996 2.44 1.944 0.263999 5 0.263999C6.952 0.263999 8.584 1.112 9.32 2.696C10.04 4.264 7.4 5.096 7.032 4.296C6.648 3.432 5.88 2.984 5.016 2.984C3.864 2.984 2.984 4.184 2.984 6.792C2.984 9.4 3.864 10.6 5.144 10.6C6.008 10.6 6.776 10.152 7.16 9.288C7.528 8.488 10.36 9.32 9.64 10.888C8.904 12.472 7.24 13.32 5.128 13.32C1.944 13.32 -0.00799996 11.144 -0.00799996 6.792ZM11.9061 11.816C12.0981 8.728 12.0501 3.928 11.9221 1.512C11.8581 0.487999 12.5461 0.231999 13.3461 0.231999C14.1461 0.231999 14.7381 0.327999 14.8021 1.352C14.9621 3.912 14.9301 8.888 14.7861 11.976C14.7381 13 14.1461 13.096 13.3461 13.096C12.5461 13.096 11.8421 12.84 11.9061 11.816ZM17.5624 11.816C17.6904 9.528 17.6584 6.776 17.5784 5.064C17.5304 4.04 18.2024 3.784 19.0024 3.784C19.8024 3.784 20.3944 3.88 20.4584 4.904C20.5704 6.76 20.5224 9.688 20.4424 11.976C20.4104 13 19.8024 13.096 19.0024 13.096C18.2024 13.096 17.4984 12.84 17.5624 11.816ZM19.0344 3.096C17.9144 3.096 17.3064 2.584 17.3064 1.56C17.3064 0.551999 17.9144 0.0559998 19.0344 0.0559998C20.1384 0.0559998 20.7304 0.551999 20.7304 1.56C20.7304 2.584 20.1384 3.096 19.0344 3.096ZM22.5158 8.456C22.5158 5.384 24.1478 3.576 26.9158 3.576C28.6438 3.576 29.9237 4.28 30.3558 5.464C30.8998 6.952 28.5158 7.624 28.1478 6.856C27.8758 6.28 27.4118 5.944 26.9318 5.944C25.9878 5.944 25.4278 6.872 25.4278 8.456C25.4278 10.024 25.9878 10.952 26.9318 10.952C27.4118 10.952 27.8758 10.616 28.1478 10.04C28.5158 9.272 31.0598 9.912 30.5158 11.352C30.0518 12.584 28.7078 13.32 26.9158 13.32C24.1478 13.32 22.5158 11.512 22.5158 8.456ZM37.4614 4.264C37.8294 3.672 38.6134 3.64 39.4134 4.184C40.1974 4.696 40.4214 5.256 40.0854 5.672C39.7654 6.072 39.2374 6.68 38.7254 7.288C38.3574 7.704 38.0214 8.104 37.5734 8.456C38.0694 8.856 38.4854 9.272 38.9014 9.704C39.4294 10.232 39.9414 10.776 40.2614 11.128C40.6454 11.528 40.4534 12.072 39.6854 12.664C38.9334 13.24 38.1174 13.192 37.7174 12.632L36.1334 10.424C35.6054 9.704 34.8054 9.576 34.8054 10.2C34.8054 10.6 34.7574 11.272 34.7254 11.976C34.6774 13 34.0854 13.096 33.3494 13.096C32.6134 13.096 31.9094 12.84 31.9734 11.816C32.1654 8.728 32.1174 3.928 31.9894 1.512C31.9254 0.487999 32.6134 0.231999 33.3494 0.231999C34.0854 0.231999 34.6934 0.327999 34.7414 1.352C34.8214 2.824 34.8374 5.16 34.8374 7.048C34.8374 7.48 35.4134 7.48 36.1174 6.392L37.4614 4.264Z" fill="#F986BD"/>
</svg>
