<svg width="98" height="111" viewBox="0 0 98 111" fill="none" xmlns="http://www.w3.org/2000/svg">
<mask id="mask0_141_230" style="mask-type:luminance" maskUnits="userSpaceOnUse" x="0" y="0" width="98" height="111">
<path fill-rule="evenodd" clip-rule="evenodd" d="M0 0H97.7541V111H0V0Z" fill="white"/>
</mask>
<g mask="url(#mask0_141_230)">
<path d="M0 3.93789L16.092 1.75L18.897 62.5739L10.9248 61.9904L0 3.93789Z" fill="white"/>
<path d="M95.8137 20.1278C95.8137 9.62579 89.7608 3.20794 74.2593 1.02002L72.1925 15.6061C75.1451 16.3354 80.9028 18.6692 80.9028 24.5036C80.9028 31.0673 74.1117 34.1304 69.3875 35.4432L68.354 43.7572L80.6075 62.7191L87.5463 61.4064L79.1312 40.6941C86.6605 38.3604 95.8137 30.7756 95.8137 20.1278Z" fill="white"/>
<path d="M70.2731 0.437589L54.4764 0L55.3622 61.845L63.3344 62.7201L70.2731 0.437589ZM37.351 32.3811C37.351 32.3811 47.39 28.297 47.39 18.6702C47.39 7.00134 37.351 1.31277 24.9498 1.31277C23.4735 1.31277 21.8495 1.31277 20.2256 1.4586L20.5209 15.0237C27.6072 14.4402 33.8078 16.774 33.8078 23.3377C33.8078 29.1722 27.7549 31.5059 22.4401 31.6518L23.1783 38.9448C30.7075 38.799 35.727 42.4455 36.0223 47.4048C36.3176 53.2392 31.4457 57.0316 21.4067 56.3023L21.5543 62.7201H25.2451C39.7131 62.7201 49.7521 54.5519 49.7521 44.7793C49.6045 38.0696 45.0279 33.8397 37.351 32.3811Z" fill="white"/>
<path d="M71.1591 73.5143C72.4877 73.5143 73.5212 72.4933 73.5212 71.1805C73.3736 69.8678 72.1925 68.9926 71.0114 68.9926C69.6828 68.9926 68.6493 70.0136 68.6493 71.3264C68.6493 72.4933 69.8304 73.5143 71.1591 73.5143ZM14.9109 73.5143C13.5823 73.6602 12.4012 74.0977 11.3678 74.827L10.7772 69.1385L6.64355 69.5761L9.30093 89.2673L13.287 88.8296L12.9917 87.371C14.1728 87.8087 15.5015 87.9545 16.8302 87.8087C21.1116 87.2252 24.2118 83.5787 23.6214 79.6404C23.1784 75.7022 19.1924 72.9308 14.9109 73.5143ZM16.3873 83.8704C14.4681 84.1621 12.5489 82.8493 12.2536 80.9532C12.106 79.2028 13.5823 77.4525 15.5015 77.1608C17.4207 77.0149 19.3399 78.3277 19.6352 80.078C19.9305 81.8283 18.3065 83.5787 16.3873 83.8704ZM36.7606 76.1398C35.7272 75.5563 34.3985 75.1188 33.0698 75.1188C28.7885 74.9729 25.0976 78.036 24.8024 81.9742C24.6548 85.9125 27.9026 89.4131 32.184 89.559C33.5127 89.559 34.6938 89.4131 35.8749 88.8297L35.7272 90.2883L39.8609 90.4342L41.042 74.827L36.9083 74.6812L36.7606 76.1398ZM32.4793 85.7665C30.4124 85.6207 28.7885 84.0163 28.9361 82.1201C28.9361 80.2239 30.8553 78.7653 32.7746 78.9111C34.8414 79.057 36.4654 80.8074 36.3177 82.5576C36.3177 84.308 34.5461 85.9125 32.4793 85.7665ZM49.8999 74.3895C50.1952 74.3895 50.1952 74.2436 50.4905 74.2436L49.3094 71.618C49.0142 71.618 49.0142 71.764 48.7189 71.764C44.4375 72.7849 41.9277 75.8481 43.2565 78.4735L45.9139 84.1621C46.5044 85.4748 45.3234 86.9334 43.2565 87.371C42.9612 87.371 42.9612 87.5169 42.6659 87.5169L43.8471 90.1424C44.1423 89.9965 44.1423 89.9966 44.4375 89.9966C48.7189 88.9755 51.2287 85.9124 49.8999 83.2869L47.2426 77.5984C46.652 76.4315 47.8331 74.827 49.8999 74.3895ZM66.2872 74.3895L63.3345 71.764L56.1005 79.057L56.9863 67.0964L52.8526 66.8047L51.5238 88.392L59.4961 81.2449L63.7775 86.6418L67.0253 84.4539L62.4487 78.3277L66.2872 74.3895ZM69.0922 74.827L69.5351 88.1003L73.6689 87.9545L73.2259 74.6812L69.0922 74.827ZM86.8081 74.827L86.6605 81.9742L76.9167 72.0557L76.1786 87.9545H80.3123L80.46 80.8074L90.0561 90.8717L90.9418 74.827L86.8081 74.827ZM65.4014 89.2673C64.0727 89.1213 63.0393 89.9966 63.0393 91.1635C62.8916 92.3303 63.9251 93.3513 65.1061 93.3513C66.2872 93.4972 67.4683 92.622 67.4683 91.4552C67.4683 90.2883 66.5825 89.2673 65.4014 89.2673ZM17.1255 97.1437H17.5683L17.2731 92.9138H16.8302C15.3538 93.0596 14.0252 93.4972 12.8441 94.2265L12.6965 92.4762L7.8246 92.9138L9.30096 109.688L13.8775 109.396L13.287 101.228C13.1393 99.1858 14.911 97.2896 17.1255 97.1437ZM23.6214 95.9768C19.6352 96.1227 16.535 99.04 16.6826 102.541C16.6826 106.187 19.9305 108.958 23.7689 108.958C27.6074 108.958 30.7077 106.041 30.7077 102.395C30.7077 98.7482 27.4598 95.9768 23.6214 95.9768ZM23.6214 105.604C21.8497 105.604 20.3734 104.145 20.2258 102.541C20.2258 100.936 21.7021 99.4775 23.4737 99.4775C25.2452 99.4775 26.8693 100.936 26.8693 102.541C26.8693 104.145 25.3929 105.604 23.6214 105.604ZM39.2704 97.1437C37.9417 97.1437 36.9083 97.4354 35.8749 97.873L36.0225 92.3303L32.3316 92.1845L31.8887 110.125L35.5796 110.271V109.104C36.4654 109.688 37.6464 109.98 38.8275 109.98C42.6659 110.125 45.9139 107.208 46.0615 103.707C46.2091 100.207 43.1089 97.2896 39.2704 97.1437ZM38.9751 106.771C37.2036 106.771 35.7272 105.312 35.7272 103.707C35.7272 101.957 37.3512 100.644 39.1228 100.644C40.8944 100.644 42.5183 102.103 42.3707 103.853C42.3707 105.458 40.7467 106.771 38.9751 106.771ZM54.0337 94.0807C52.8526 94.0807 51.6716 94.3724 50.7857 94.9558L50.6381 89.559L46.9473 89.7048L47.6855 107.646L51.081 107.5V106.333C52.1144 106.916 53.2955 107.062 54.4765 107.062C58.315 106.916 61.4153 103.853 61.2677 100.353C61.12 96.7061 57.8722 93.9348 54.0337 94.0807ZM54.4765 103.562C52.705 103.707 51.081 102.249 51.081 100.644C51.081 99.0399 52.5573 97.4354 54.3289 97.4354C56.1005 97.2896 57.5769 98.7482 57.7245 100.353C57.7245 102.103 56.2481 103.562 54.4765 103.562ZM62.4487 106.187L66.1396 106.333L66.8777 94.3724L63.1869 94.2265L62.4487 106.187ZM78.8359 100.499L69.6828 90.1424L69.5351 105.895H73.2259V99.4775L82.0839 108.958L82.5269 94.0807H78.8359V100.499ZM88.7274 98.3106C88.1369 96.9979 89.318 95.5392 91.2371 95.2475C91.5324 95.2475 91.5324 95.2475 91.8277 95.1017L90.6466 92.3303C90.3514 92.3303 90.3514 92.3303 90.0561 92.4762C85.9224 93.2055 83.4126 96.2686 84.5937 99.0399L87.1034 105.02C87.6939 106.333 86.5129 107.792 84.5937 108.083C84.2984 108.083 84.2984 108.083 84.0031 108.229L85.1842 111C85.4794 111 85.4794 111 85.7747 110.855C90.0561 110.125 92.4182 107.062 91.2371 104.291L88.7274 98.3106Z" fill="white"/>
</g>
</svg>
