<svg width="107" height="34" viewBox="0 0 107 34" fill="none" xmlns="http://www.w3.org/2000/svg">
<path d="M94.0928 6.46064C94.9597 6.46064 95.634 5.78184 95.634 4.90907C95.5377 4.03639 94.7671 3.45452 93.9965 3.45452C93.1296 3.45452 92.4554 4.13335 92.4554 5.00609C92.4554 5.78184 93.2259 6.46064 94.0928 6.46064ZM57.394 6.46064C56.5272 6.55759 55.7565 6.84848 55.0823 7.33332L54.697 3.55154L52 3.84243L53.7338 16.9334L56.3345 16.6424L56.1418 15.6727C56.9124 15.9637 57.7793 16.0606 58.6462 15.9637C61.4396 15.5758 63.4623 13.1515 63.0771 10.5333C62.7881 7.91519 60.1874 6.07273 57.394 6.46064ZM58.3573 13.3455C57.1051 13.5394 55.8529 12.6667 55.6602 11.4061C55.5639 10.2424 56.5272 9.07876 57.7793 8.88488C59.0315 8.78787 60.2837 9.66063 60.4764 10.8243C60.669 11.9879 59.6094 13.1515 58.3573 13.3455ZM71.6497 8.20606C70.9755 7.81817 70.1086 7.52728 69.2417 7.52728C66.4484 7.43033 64.0403 9.46666 63.8476 12.0849C63.7513 14.7031 65.8704 17.0303 68.6637 17.1273C69.5307 17.1273 70.3012 17.0303 71.0718 16.6425L70.9755 17.6122L73.6725 17.7091L74.4431 7.33333L71.7461 7.23639L71.6497 8.20606ZM68.8564 14.606C67.5079 14.5091 66.4484 13.4424 66.5446 12.1818C66.5446 10.9212 67.7968 9.95154 69.0491 10.0485C70.3975 10.1455 71.4571 11.3091 71.3607 12.4727C71.3607 13.6364 70.2049 14.7031 68.8564 14.606ZM80.2224 7.04244C80.4151 7.04244 80.4151 6.94549 80.6077 6.94549L79.8371 5.19997C79.6445 5.19997 79.6445 5.29698 79.4519 5.29698C76.6585 5.97572 75.021 8.01213 75.8879 9.75758L77.6217 13.5394C78.007 14.4121 77.2365 15.3818 75.8879 15.6727C75.6953 15.6727 75.6953 15.7697 75.5026 15.7697L76.2732 17.5151C76.4659 17.4182 76.4658 17.4182 76.6585 17.4182C79.4519 16.7394 81.0894 14.703 80.2224 12.9575L78.4886 9.17579C78.1033 8.39998 78.8739 7.33333 80.2224 7.04244ZM90.9142 7.04244L88.9877 5.297L84.268 10.1455L84.8459 2.19394L82.1489 2L81.2819 16.3515L86.4834 11.6L89.2767 15.1879L91.3958 13.7334L88.4098 9.66061L90.9142 7.04244ZM92.7443 7.33333L93.0333 16.1575L95.7304 16.0606L95.4413 7.23637L92.7443 7.33333ZM104.303 7.33333L104.207 12.0849L97.8494 5.49094L97.3678 16.0606H100.065L100.161 11.3091L106.422 18L107 7.33332L104.303 7.33333Z" fill="#07219B"/>
<path d="M90.3269 18.0102C89.4885 17.9163 88.8366 18.4797 88.8366 19.2308C88.7434 19.9819 89.3954 20.6392 90.1406 20.6392C90.8857 20.7331 91.6309 20.1697 91.6309 19.4186C91.6309 18.6675 91.072 18.0102 90.3269 18.0102ZM59.8682 23.0803H60.1476L59.9614 20.3575H59.6819C58.7504 20.4514 57.9121 20.7331 57.167 21.2025L57.0738 20.0759L54 20.3575L54.9315 31.155L57.819 30.9672L57.4464 25.7093C57.3532 24.3948 58.471 23.1743 59.8682 23.0803ZM63.9666 22.3292C61.4517 22.4231 59.4956 24.301 59.5887 26.5543C59.5887 28.9016 61.638 30.6856 64.0597 30.6856C66.4816 30.6856 68.4376 28.8077 68.4376 26.4605C68.4376 24.1132 66.3884 22.3292 63.9666 22.3292ZM63.9666 28.5261C62.8489 28.5261 61.9174 27.5871 61.8243 26.5543C61.8243 25.5215 62.7557 24.5826 63.8734 24.5826C64.9912 24.5826 66.0158 25.5215 66.0158 26.5543C66.0158 27.5872 65.0844 28.5261 63.9666 28.5261ZM73.84 23.0803C73.0018 23.0803 72.3497 23.2681 71.6977 23.5498L71.7908 19.9819L69.4622 19.8881L69.1828 31.4367L71.5114 31.5306V30.7794C72.0703 31.155 72.8155 31.3428 73.5606 31.3428C75.9824 31.4367 78.0316 29.5589 78.1248 27.3054C78.2179 25.0521 76.2619 23.1742 73.84 23.0803ZM73.6537 29.2772C72.536 29.2772 71.6046 28.3383 71.6046 27.3054C71.6046 26.1788 72.6292 25.3338 73.7469 25.3338C74.8647 25.3338 75.8893 26.2727 75.7961 27.3994C75.7961 28.4322 74.7715 29.2772 73.6537 29.2772ZM83.1546 21.1086C82.4095 21.1086 81.6643 21.2964 81.1054 21.672L81.0123 18.1981L78.6836 18.2919L79.1494 29.8405L81.2917 29.7466V28.9955C81.9437 29.3711 82.6889 29.465 83.4341 29.465C85.8559 29.3711 87.8119 27.3994 87.7188 25.146C87.6256 22.7987 85.5765 21.0148 83.1546 21.1086ZM83.4341 27.2116C82.3164 27.3054 81.2917 26.3665 81.2917 25.3337C81.2917 24.301 82.2232 23.2681 83.3409 23.2681C84.4587 23.1743 85.3902 24.1132 85.4833 25.146C85.4833 26.2727 84.5518 27.2116 83.4341 27.2116ZM88.464 28.9016L90.7926 28.9955L91.2583 21.2964L88.9297 21.2025L88.464 28.9016ZM98.8031 25.2399L93.0281 18.5736L92.9349 28.7138H95.2636V24.5826L100.852 30.6855L101.132 21.1086H98.8031V25.2399ZM105.044 23.8315C104.671 22.9865 105.417 22.0476 106.627 21.8598C106.814 21.8598 106.814 21.8598 107 21.7659L106.255 19.9819C106.069 19.9819 106.069 19.9819 105.882 20.0759C103.274 20.5453 101.691 22.517 102.436 24.301L104.019 28.1505C104.392 28.9955 103.647 29.9345 102.436 30.1222C102.25 30.1222 102.25 30.1222 102.063 30.2161L102.808 32C102.995 32 102.995 32 103.181 31.9061C105.882 31.4367 107.373 29.465 106.627 27.681L105.044 23.8315Z" fill="#07219B"/>
<path d="M0 2.09328L8.39744 0.930359L9.86122 33.2598L5.70101 32.9497L0 2.09328Z" fill="#07219B"/>
<path d="M49.9995 10.699C49.9995 5.11691 46.8408 1.70566 38.7516 0.542725L37.673 8.29559C39.2138 8.68324 42.2184 9.92371 42.2184 13.0248C42.2184 16.5136 38.6745 18.1417 36.2092 18.8395L35.6699 23.2586L42.0643 33.3374L45.6852 32.6396L41.2939 21.6305C45.223 20.3901 49.9995 16.3586 49.9995 10.699Z" fill="#07219B"/>
<path d="M36.6715 0.23259L28.4281 0L28.8904 32.8722L33.0506 33.3374L36.6715 0.23259ZM19.4914 17.2114C19.4914 17.2114 24.7302 15.0406 24.7302 9.92368C24.7302 3.72139 19.4914 0.69777 13.02 0.69777C12.2496 0.69777 11.4021 0.69777 10.5547 0.775284L10.7088 7.98548C14.4067 7.67536 17.6424 8.9158 17.6424 12.4046C17.6424 15.5058 14.4838 16.7462 11.7103 16.8237L12.0955 20.7002C16.0246 20.6227 18.644 22.5609 18.7981 25.1969C18.9521 28.298 16.4098 30.3138 11.171 29.9261L11.248 33.3374H13.1741C20.7241 33.3374 25.9628 28.9958 25.9628 23.8013C25.8858 20.235 23.4975 17.9867 19.4914 17.2114Z" fill="#F20C90"/>
</svg>
